<svg width="30" height="29" viewBox="0 0 35 34" fill="none" xmlns="http://www.w3.org/2000/svg">
    <path d="M5.25 25.0217V4.64127H0V25.0217H5.25ZM17.5 0.565186H26.25C26.25 0.565186 35 0.565186 35 8.71736V20.9456C35 24.553 33.25 26.5706 31.3775 27.6915C31.0952 25.8048 30.251 24.0943 28.9932 22.8606C27.7354 21.6269 26.1445 20.9488 24.5 20.9456H19.25V25.0217H24.5C25.4283 25.0217 26.3185 25.4512 26.9749 26.2156C27.6313 26.98 28 28.0167 28 29.0978C28 30.1788 27.6313 31.2156 26.9749 31.98C26.3185 32.7444 25.4283 33.1739 24.5 33.1739H15.75C8.75 33.1739 8.75 25.0217 8.75 25.0217V4.64127C8.75 4.64127 10.5 0.565186 17.5 0.565186Z"
          fill="#55B9F2"/>
</svg>
