<svg width="35" height="35" viewBox="0 0 100 100" fill="none" xmlns="http://www.w3.org/2000/svg">
    <path d="M16.6671 41.6666L13.7212 44.6124L10.7754 41.6666L13.7212 38.7208L16.6671 41.6666ZM87.5004 74.9999C87.5004 76.105 87.0614 77.1648 86.28 77.9462C85.4986 78.7276 84.4388 79.1666 83.3337 79.1666C82.2287 79.1666 81.1688 78.7276 80.3874 77.9462C79.606 77.1648 79.1671 76.105 79.1671 74.9999H87.5004ZM34.5546 65.4458L13.7212 44.6124L19.6129 38.7208L40.4462 59.5541L34.5546 65.4458ZM13.7212 38.7208L34.5546 17.8875L40.4462 23.7791L19.6129 44.6124L13.7212 38.7208ZM16.6671 37.4999H58.3337V45.8333H16.6671V37.4999ZM87.5004 66.6666V74.9999H79.1671V66.6666H87.5004ZM58.3337 37.4999C66.0692 37.4999 73.4879 40.5729 78.9577 46.0427C84.4275 51.5125 87.5004 58.9311 87.5004 66.6666H79.1671C79.1671 61.1413 76.9721 55.8422 73.0651 51.9352C69.1581 48.0282 63.8591 45.8333 58.3337 45.8333V37.4999Z"
          fill="#545454"/>
</svg>
