<svg width="46" height="36" viewBox="0 0 46 36" fill="none" xmlns="http://www.w3.org/2000/svg">
<path d="M43.3125 6.625H34.8828C34.5781 6.625 34.2003 6.42797 33.9058 6.11719L31.1352 1.77031C30.0078 0.125 29.5 0.125 27.6719 0.125H18.3281C16.5 0.125 15.8906 0.125 14.8679 1.77133L12.0942 6.11719C11.8687 6.36297 11.5519 6.625 11.2188 6.625V5C11.2188 4.78451 11.1331 4.57785 10.9808 4.42548C10.8284 4.2731 10.6217 4.1875 10.4062 4.1875H6.34375C6.12826 4.1875 5.9216 4.2731 5.76923 4.42548C5.61685 4.57785 5.53125 4.78451 5.53125 5V6.625H2.6875C2.04103 6.625 1.42105 6.88181 0.963927 7.33893C0.506807 7.79605 0.25 8.41603 0.25 9.0625V33.4375C0.25 34.084 0.506807 34.704 0.963927 35.1611C1.42105 35.6182 2.04103 35.875 2.6875 35.875H43.3125C43.959 35.875 44.579 35.6182 45.0361 35.1611C45.4932 34.704 45.75 34.084 45.75 33.4375V9.0625C45.75 8.41603 45.4932 7.79605 45.0361 7.33893C44.579 6.88181 43.959 6.625 43.3125 6.625ZM23.458 29.3648C21.4929 29.4572 19.5457 28.9528 17.8724 27.918C16.1992 26.8833 14.8781 25.3665 14.0828 23.5671C13.2875 21.7677 13.0551 19.7697 13.4163 17.8358C13.7774 15.9019 14.7152 14.1224 16.1063 12.7313C17.4974 11.3402 19.2769 10.4024 21.2108 10.0413C23.1447 9.68012 25.1427 9.91247 26.9421 10.7078C28.7415 11.5031 30.2583 12.8242 31.293 14.4974C32.3278 16.1707 32.8321 18.1179 32.7398 20.083C32.6234 22.5072 31.6082 24.801 29.8921 26.5171C28.176 28.2332 25.8822 29.2484 23.458 29.3648Z" fill="#888888"/>
</svg>
