<svg width="52" height="52" viewBox="0 0 52 52" fill="none" xmlns="http://www.w3.org/2000/svg">
    <path d="M26 34.125C29.5899 34.125 32.5 31.2149 32.5 27.625C32.5 24.0351 29.5899 21.125 26 21.125C22.4101 21.125 19.5 24.0351 19.5 27.625C19.5 31.2149 22.4101 34.125 26 34.125Z"
          fill="#888888"/>
    <path d="M46.3125 14.625H37.8828C37.5781 14.625 37.2003 14.428 36.9058 14.1172L34.1352 9.77031C33.0078 8.125 32.5 8.125 30.6719 8.125H21.3281C19.5 8.125 18.8906 8.125 17.8679 9.77133L15.0942 14.1172C14.8687 14.363 14.5519 14.625 14.2188 14.625V13C14.2188 12.7845 14.1331 12.5778 13.9808 12.4255C13.8284 12.2731 13.6217 12.1875 13.4062 12.1875H9.34375C9.12826 12.1875 8.9216 12.2731 8.76923 12.4255C8.61685 12.5778 8.53125 12.7845 8.53125 13V14.625H5.6875C5.04103 14.625 4.42105 14.8818 3.96393 15.3389C3.50681 15.796 3.25 16.416 3.25 17.0625V41.4375C3.25 42.084 3.50681 42.704 3.96393 43.1611C4.42105 43.6182 5.04103 43.875 5.6875 43.875H46.3125C46.959 43.875 47.579 43.6182 48.0361 43.1611C48.4932 42.704 48.75 42.084 48.75 41.4375V17.0625C48.75 16.416 48.4932 15.796 48.0361 15.3389C47.579 14.8818 46.959 14.625 46.3125 14.625ZM26.458 37.3648C24.4929 37.4572 22.5457 36.9528 20.8724 35.918C19.1992 34.8833 17.8781 33.3665 17.0828 31.5671C16.2875 29.7677 16.0551 27.7697 16.4163 25.8358C16.7774 23.9019 17.7152 22.1224 19.1063 20.7313C20.4974 19.3402 22.2769 18.4024 24.2108 18.0413C26.1447 17.6801 28.1427 17.9125 29.9421 18.7078C31.7415 19.5031 33.2583 20.8242 34.293 22.4974C35.3278 24.1707 35.8321 26.1179 35.7398 28.083C35.6234 30.5072 34.6082 32.801 32.8921 34.5171C31.176 36.2332 28.8822 37.2484 26.458 37.3648Z"
          fill="#888888"/>
</svg>
