<svg width="30" height="29" viewBox="0 0 35 34" fill="none" xmlns="http://www.w3.org/2000/svg">
    <path d="M29.75 25.0217V4.64127H35V25.0217H29.75ZM17.5 0.565186H8.75C8.75 0.565186 0 0.565186 0 8.71736V20.9456C0 24.553 1.75 26.5706 3.6225 27.6915C3.90481 25.8048 4.74903 24.0943 6.00682 22.8606C7.26462 21.6269 8.85552 20.9488 10.5 20.9456H15.75V25.0217H10.5C9.57174 25.0217 8.6815 25.4512 8.02513 26.2156C7.36875 26.98 7 28.0167 7 29.0978C7 30.1788 7.36875 31.2156 8.02513 31.98C8.6815 32.7444 9.57174 33.1739 10.5 33.1739H19.25C26.25 33.1739 26.25 25.0217 26.25 25.0217V4.64127C26.25 4.64127 24.5 0.565186 17.5 0.565186Z"
          fill="#F24E1E"/>
</svg>
