<svg width="20" height="20" viewBox="0 0 30 30" fill="none" xmlns="http://www.w3.org/2000/svg">
    <path fill-rule="evenodd" clip-rule="evenodd"
          d="M3.65782 0.627893C3.25367 0.237554 2.71238 0.0215659 2.15053 0.0264482C1.58868 0.0313305 1.05123 0.256693 0.653925 0.653996C0.256622 1.0513 0.0312598 1.58875 0.0263775 2.1506C0.0214951 2.71245 0.237483 3.25375 0.627822 3.65789L11.97 15L0.627822 26.3422C0.423157 26.5399 0.25991 26.7763 0.147605 27.0377C0.0352995 27.2992 -0.0238138 27.5804 -0.0262863 27.8649C-0.0287587 28.1494 0.0254592 28.4316 0.133204 28.6949C0.240949 28.9583 0.400063 29.1975 0.601261 29.3987C0.80246 29.5999 1.04171 29.7591 1.30506 29.8668C1.56841 29.9745 1.85058 30.0288 2.13511 30.0263C2.41964 30.0238 2.70082 29.9647 2.96226 29.8524C3.2237 29.7401 3.46015 29.5768 3.65782 29.3722L15 18.03L26.3421 29.3722C26.7463 29.7625 27.2875 29.9785 27.8494 29.9736C28.4112 29.9687 28.9487 29.7434 29.346 29.3461C29.7433 28.9488 29.9687 28.4113 29.9736 27.8495C29.9784 27.2876 29.7624 26.7463 29.3721 26.3422L18.03 15L29.3721 3.65789C29.7624 3.25375 29.9784 2.71245 29.9736 2.1506C29.9687 1.58875 29.7433 1.0513 29.346 0.653996C28.9487 0.256693 28.4112 0.0313305 27.8494 0.0264482C27.2875 0.0215659 26.7463 0.237554 26.3421 0.627893L15 11.97L3.65782 0.627893Z"
          fill="#333333"/>
</svg>
